<?xml version="1.0" encoding="UTF-8" standalone="no"?>
<svg
  width="100%"
  height="100%"
  viewBox="0 0 284 111"
  version="1.1"
  xml:space="preserve"
  style="fill-rule:evenodd;clip-rule:evenodd;stroke-linejoin:round;stroke-miterlimit:2;"
  xmlns="http://www.w3.org/2000/svg"
  xmlns:svg="http://www.w3.org/2000/svg">
    <g id="minor-text">
      <path id="Y1-minor-text" d="M10.807,103.7l0,-4.82l-3.437,-6.633l2.219,-0l2.211,4.531l2.172,-4.531l2.179,-0l-3.453,6.648l0,4.805l-1.891,-0Z" />
      <path id="O1-minor-text" d="M17.514,98.044c-0,-1.365 0.202,-2.489 0.605,-3.371c0.404,-0.883 0.931,-1.541 1.582,-1.973c0.651,-0.432 1.44,-0.648 2.367,-0.648c1.344,-0 2.439,0.513 3.286,1.539c0.846,1.026 1.269,2.487 1.269,4.382c0,1.917 -0.448,3.414 -1.344,4.493c-0.786,0.953 -1.854,1.429 -3.203,1.429c-1.359,0 -2.432,-0.471 -3.219,-1.414c-0.895,-1.078 -1.343,-2.557 -1.343,-4.437Zm1.953,-0.078c-0,1.317 0.25,2.306 0.75,2.964c0.5,0.659 1.12,0.989 1.859,0.989c0.745,-0 1.362,-0.327 1.852,-0.981c0.489,-0.653 0.734,-1.657 0.734,-3.011c0,-1.329 -0.238,-2.31 -0.715,-2.946c-0.476,-0.635 -1.1,-0.953 -1.871,-0.953c-0.771,0 -1.398,0.32 -1.883,0.961c-0.484,0.641 -0.726,1.633 -0.726,2.977Z" />
      <path id="U1-minor-text" d="M28.884,92.247l1.891,-0l-0,6.203c-0,0.964 0.023,1.591 0.07,1.883c0.083,0.505 0.283,0.896 0.598,1.172c0.315,0.276 0.73,0.414 1.246,0.414c0.437,-0 0.794,-0.098 1.07,-0.293c0.276,-0.196 0.465,-0.466 0.566,-0.813c0.102,-0.346 0.153,-1.09 0.153,-2.23l-0,-6.336l1.898,-0l0,6.015c0,1.537 -0.082,2.648 -0.246,3.333c-0.164,0.684 -0.534,1.239 -1.109,1.664c-0.576,0.424 -1.335,0.636 -2.278,0.636c-0.979,0 -1.743,-0.175 -2.293,-0.527c-0.549,-0.352 -0.947,-0.846 -1.195,-1.484c-0.247,-0.638 -0.371,-1.814 -0.371,-3.528l0,-6.109Z" />
      <path id="R1-minor-text" d="M39.176,103.7l0,-11.453l3.992,-0c1.021,-0 1.75,0.103 2.188,0.308c0.437,0.206 0.797,0.563 1.078,1.071c0.281,0.508 0.422,1.116 0.422,1.824c-0,0.896 -0.215,1.617 -0.645,2.164c-0.429,0.547 -1.04,0.891 -1.832,1.031c0.407,0.292 0.743,0.611 1.008,0.957c0.266,0.347 0.628,0.968 1.086,1.864l1.141,2.234l-2.258,-0l-1.375,-2.492c-0.495,-0.901 -0.831,-1.465 -1.008,-1.692c-0.177,-0.226 -0.364,-0.382 -0.562,-0.468c-0.198,-0.086 -0.516,-0.129 -0.954,-0.129l-0.39,-0l-0,4.781l-1.891,-0Zm1.891,-6.609l1.406,-0c0.859,-0 1.406,-0.038 1.641,-0.114c0.234,-0.075 0.424,-0.228 0.57,-0.457c0.146,-0.229 0.219,-0.534 0.219,-0.914c-0,-0.364 -0.073,-0.657 -0.219,-0.879c-0.146,-0.221 -0.344,-0.373 -0.594,-0.457c-0.177,-0.057 -0.69,-0.086 -1.539,-0.086l-1.484,0l-0,2.907Z" />
      <path id="R2-minor-text" d="M53.893,103.7l0,-11.453l3.993,-0c1.02,-0 1.75,0.103 2.187,0.308c0.438,0.206 0.797,0.563 1.078,1.071c0.281,0.508 0.422,1.116 0.422,1.824c0,0.896 -0.215,1.617 -0.644,2.164c-0.43,0.547 -1.041,0.891 -1.832,1.031c0.406,0.292 0.742,0.611 1.007,0.957c0.266,0.347 0.628,0.968 1.086,1.864l1.141,2.234l-2.258,-0l-1.375,-2.492c-0.495,-0.901 -0.831,-1.465 -1.008,-1.692c-0.177,-0.226 -0.364,-0.382 -0.562,-0.468c-0.198,-0.086 -0.516,-0.129 -0.953,-0.129l-0.391,-0l0,4.781l-1.891,-0Zm1.891,-6.609l1.406,-0c0.86,-0 1.407,-0.038 1.641,-0.114c0.234,-0.075 0.424,-0.228 0.57,-0.457c0.146,-0.229 0.219,-0.534 0.219,-0.914c-0,-0.364 -0.073,-0.657 -0.219,-0.879c-0.146,-0.221 -0.344,-0.373 -0.594,-0.457c-0.177,-0.057 -0.69,-0.086 -1.539,-0.086l-1.484,0l0,2.907Z" />
      <path id="E1-minor-text" d="M64.162,103.7l0,-11.453l6.969,-0l-0,1.937l-5.078,0l-0,2.539l4.719,0l-0,1.93l-4.719,0l-0,3.117l5.25,0l-0,1.93l-7.141,-0Z" />
      <path id="L1-minor-text" d="M73.759,103.7l0,-11.359l1.891,-0l-0,9.429l4.718,0l0,1.93l-6.609,-0Z" />
      <path id="A1-minor-text" d="M90.989,103.7l-2.063,-0l-0.82,-2.602l-3.75,0l-0.774,2.602l-2.015,-0l3.656,-11.453l2.008,-0l3.758,11.453Zm-3.492,-4.531l-1.29,-4.25l-1.273,4.25l2.563,-0Z" />
      <path id="T1-minor-text" d="M93.945,103.7l-0,-9.516l-2.789,0l-0,-1.937l7.461,-0l-0,1.937l-2.781,0l-0,9.516l-1.891,-0Z" />
      <path id="E2-minor-text" d="M100.651,103.7l0,-11.453l6.969,-0l-0,1.937l-5.078,0l-0,2.539l4.719,0l-0,1.93l-4.719,0l-0,3.117l5.25,0l-0,1.93l-7.141,-0Z" />
      <path id="D1-minor-text" d="M110.186,92.247l3.461,-0c0.875,-0 1.535,0.098 1.98,0.293c0.445,0.195 0.855,0.525 1.23,0.988c0.375,0.464 0.67,1.065 0.883,1.805c0.214,0.739 0.321,1.659 0.321,2.758c-0,0.989 -0.112,1.85 -0.336,2.582c-0.224,0.731 -0.508,1.311 -0.852,1.738c-0.344,0.427 -0.759,0.749 -1.246,0.965c-0.487,0.216 -1.113,0.324 -1.879,0.324l-3.562,-0l-0,-11.453Zm1.89,1.937l0,7.586l1.422,0c0.609,0 1.051,-0.057 1.324,-0.172c0.274,-0.114 0.498,-0.287 0.672,-0.519c0.175,-0.232 0.319,-0.598 0.434,-1.098c0.114,-0.5 0.172,-1.159 0.172,-1.976c-0,-0.849 -0.059,-1.519 -0.176,-2.008c-0.117,-0.49 -0.3,-0.875 -0.547,-1.156c-0.247,-0.282 -0.548,-0.467 -0.902,-0.555c-0.266,-0.068 -0.779,-0.102 -1.539,-0.102l-0.86,0Z" />
      <path id="W1-minor-text" d="M126.239,103.7l-2.242,-11.453l1.945,-0l1.406,7.867l1.719,-7.867l2.258,-0l1.648,8l1.445,-8l1.907,-0l-2.282,11.453l-2.015,-0l-1.875,-8.563l-1.86,8.563l-2.054,-0Z" />
      <path id="E3-minor-text" d="M138.101,103.7l0,-11.453l6.969,-0l-0,1.937l-5.078,0l-0,2.539l4.719,0l-0,1.93l-4.719,0l-0,3.117l5.25,0l-0,1.93l-7.141,-0Z" />
      <path id="B1-minor-text" d="M147.643,92.247l3.758,-0c1.026,-0 1.748,0.094 2.164,0.281c0.417,0.188 0.769,0.518 1.055,0.992c0.286,0.474 0.43,1.011 0.43,1.61c-0,0.552 -0.123,1.05 -0.368,1.496c-0.244,0.445 -0.562,0.775 -0.953,0.988c0.558,0.198 0.994,0.537 1.309,1.016c0.315,0.479 0.473,1.062 0.473,1.75c-0,0.833 -0.201,1.537 -0.602,2.113c-0.401,0.575 -0.875,0.931 -1.422,1.066c-0.38,0.094 -1.263,0.141 -2.648,0.141l-3.196,-0l0,-11.453Zm1.891,1.906l0,2.649l1.25,-0c0.75,-0 1.214,-0.013 1.391,-0.04c0.323,-0.052 0.575,-0.188 0.757,-0.41c0.183,-0.221 0.274,-0.522 0.274,-0.902c-0,-0.339 -0.074,-0.613 -0.223,-0.824c-0.148,-0.211 -0.328,-0.343 -0.539,-0.395c-0.211,-0.052 -0.816,-0.078 -1.816,-0.078l-1.094,0Zm0,4.555l0,3.062l1.758,0c0.771,0 1.265,-0.04 1.484,-0.121c0.219,-0.081 0.403,-0.239 0.551,-0.476c0.148,-0.237 0.223,-0.538 0.223,-0.903c-0,-0.375 -0.08,-0.683 -0.239,-0.925c-0.158,-0.243 -0.369,-0.409 -0.632,-0.5c-0.263,-0.092 -0.801,-0.137 -1.614,-0.137l-1.531,-0Z" />
      <path id="S1-minor-text" d="M157.436,99.973l1.851,-0.218c0.209,1.463 0.891,2.195 2.047,2.195c0.573,-0 1.023,-0.15 1.352,-0.449c0.328,-0.3 0.492,-0.671 0.492,-1.114c-0,-0.26 -0.057,-0.481 -0.172,-0.664c-0.115,-0.182 -0.289,-0.332 -0.524,-0.449c-0.234,-0.117 -0.802,-0.314 -1.703,-0.59c-0.807,-0.244 -1.398,-0.51 -1.773,-0.797c-0.375,-0.286 -0.673,-0.662 -0.895,-1.128c-0.221,-0.467 -0.332,-0.968 -0.332,-1.504c0,-0.625 0.142,-1.188 0.426,-1.688c0.284,-0.5 0.676,-0.877 1.176,-1.133c0.5,-0.255 1.117,-0.382 1.851,-0.382c1.105,-0 1.967,0.299 2.586,0.898c0.62,0.599 0.948,1.456 0.985,2.57l-1.899,0.102c-0.083,-0.615 -0.263,-1.044 -0.539,-1.289c-0.276,-0.245 -0.669,-0.367 -1.179,-0.367c-0.511,-0 -0.904,0.106 -1.18,0.32c-0.276,0.213 -0.414,0.479 -0.414,0.797c-0,0.312 0.125,0.575 0.375,0.789c0.25,0.213 0.825,0.448 1.726,0.703c0.954,0.276 1.642,0.566 2.067,0.871c0.424,0.305 0.749,0.698 0.972,1.18c0.224,0.482 0.336,1.066 0.336,1.754c0,0.994 -0.306,1.83 -0.918,2.507c-0.612,0.678 -1.569,1.016 -2.871,1.016c-2.302,0 -3.583,-1.31 -3.843,-3.93Z" />
      <rect id="I1-minor-text" x="167.407" y="92.247" width="1.891" height="11.453" />
      <path id="T2-minor-text" d="M174.028,103.7l-0,-9.516l-2.789,0l-0,-1.937l7.461,-0l-0,1.937l-2.782,0l0,9.516l-1.89,-0Z" />
      <path id="E4-minor-text" d="M180.734,103.7l0,-11.453l6.969,-0l-0,1.937l-5.078,0l-0,2.539l4.718,0l0,1.93l-4.718,0l-0,3.117l5.25,0l-0,1.93l-7.141,-0Z" />
      <path id="O2-minor-text" d="M194.35,98.044c-0,-1.365 0.202,-2.489 0.605,-3.371c0.404,-0.883 0.931,-1.541 1.582,-1.973c0.651,-0.432 1.44,-0.648 2.367,-0.648c1.344,-0 2.439,0.513 3.286,1.539c0.846,1.026 1.269,2.487 1.269,4.382c0,1.917 -0.448,3.414 -1.344,4.493c-0.786,0.953 -1.854,1.429 -3.203,1.429c-1.359,0 -2.432,-0.471 -3.219,-1.414c-0.895,-1.078 -1.343,-2.557 -1.343,-4.437Zm1.953,-0.078c-0,1.317 0.25,2.306 0.75,2.964c0.5,0.659 1.12,0.989 1.859,0.989c0.745,-0 1.362,-0.327 1.852,-0.981c0.489,-0.653 0.734,-1.657 0.734,-3.011c0,-1.329 -0.238,-2.31 -0.715,-2.946c-0.476,-0.635 -1.1,-0.953 -1.871,-0.953c-0.771,0 -1.398,0.32 -1.883,0.961c-0.484,0.641 -0.726,1.633 -0.726,2.977Z" />
      <path id="R3-minor-text" d="M205.743,103.7l0,-11.453l3.993,-0c1.02,-0 1.75,0.103 2.187,0.308c0.438,0.206 0.797,0.563 1.078,1.071c0.281,0.508 0.422,1.116 0.422,1.824c0,0.896 -0.215,1.617 -0.644,2.164c-0.43,0.547 -1.041,0.891 -1.832,1.031c0.406,0.292 0.742,0.611 1.007,0.957c0.266,0.347 0.628,0.968 1.086,1.864l1.141,2.234l-2.258,-0l-1.375,-2.492c-0.495,-0.901 -0.831,-1.465 -1.008,-1.692c-0.177,-0.226 -0.364,-0.382 -0.562,-0.468c-0.198,-0.086 -0.516,-0.129 -0.953,-0.129l-0.391,-0l0,4.781l-1.891,-0Zm1.891,-6.609l1.406,-0c0.86,-0 1.407,-0.038 1.641,-0.114c0.234,-0.075 0.424,-0.228 0.57,-0.457c0.146,-0.229 0.219,-0.534 0.219,-0.914c-0,-0.364 -0.073,-0.657 -0.219,-0.879c-0.146,-0.221 -0.344,-0.373 -0.594,-0.457c-0.177,-0.057 -0.69,-0.086 -1.539,-0.086l-1.484,0l0,2.907Z" />
      <path id="P1-minor-text" d="M220.453,103.7l-0,-11.453l3.047,-0c1.135,-0 1.877,0.055 2.226,0.164c0.558,0.177 1.017,0.555 1.379,1.133c0.362,0.578 0.543,1.323 0.543,2.234c0,0.828 -0.156,1.522 -0.469,2.082c-0.312,0.56 -0.703,0.953 -1.172,1.18c-0.468,0.226 -1.276,0.34 -2.421,0.34l-1.243,-0l0,4.32l-1.89,-0Zm1.89,-9.516l0,3.25l1.047,0c0.703,0 1.181,-0.049 1.434,-0.148c0.253,-0.099 0.46,-0.277 0.621,-0.535c0.161,-0.258 0.242,-0.574 0.242,-0.949c0,-0.381 -0.083,-0.701 -0.25,-0.961c-0.166,-0.261 -0.372,-0.435 -0.617,-0.524c-0.245,-0.088 -0.763,-0.133 -1.555,-0.133l-0.922,0Z" />
      <path id="O3-minor-text" d="M229.628,98.044c-0,-1.365 0.202,-2.489 0.605,-3.371c0.404,-0.883 0.931,-1.541 1.582,-1.973c0.651,-0.432 1.44,-0.648 2.367,-0.648c1.344,-0 2.439,0.513 3.286,1.539c0.846,1.026 1.269,2.487 1.269,4.382c0,1.917 -0.448,3.414 -1.344,4.493c-0.786,0.953 -1.854,1.429 -3.203,1.429c-1.359,0 -2.432,-0.471 -3.218,-1.414c-0.896,-1.078 -1.344,-2.557 -1.344,-4.437Zm1.953,-0.078c-0,1.317 0.25,2.306 0.75,2.964c0.5,0.659 1.12,0.989 1.859,0.989c0.745,-0 1.362,-0.327 1.852,-0.981c0.489,-0.653 0.734,-1.657 0.734,-3.011c0,-1.329 -0.238,-2.31 -0.715,-2.946c-0.476,-0.635 -1.1,-0.953 -1.871,-0.953c-0.771,0 -1.398,0.32 -1.883,0.961c-0.484,0.641 -0.726,1.633 -0.726,2.977Z" />
      <path id="R4-minor-text" d="M241.022,103.7l-0,-11.453l3.992,-0c1.021,-0 1.75,0.103 2.187,0.308c0.438,0.206 0.797,0.563 1.078,1.071c0.282,0.508 0.422,1.116 0.422,1.824c0,0.896 -0.215,1.617 -0.644,2.164c-0.43,0.547 -1.041,0.891 -1.832,1.031c0.406,0.292 0.742,0.611 1.007,0.957c0.266,0.347 0.628,0.968 1.086,1.864l1.141,2.234l-2.258,-0l-1.375,-2.492c-0.495,-0.901 -0.83,-1.465 -1.008,-1.692c-0.177,-0.226 -0.364,-0.382 -0.562,-0.468c-0.198,-0.086 -0.516,-0.129 -0.953,-0.129l-0.391,-0l0,4.781l-1.89,-0Zm1.89,-6.609l1.406,-0c0.86,-0 1.407,-0.038 1.641,-0.114c0.234,-0.075 0.425,-0.228 0.57,-0.457c0.146,-0.229 0.219,-0.534 0.219,-0.914c0,-0.364 -0.073,-0.657 -0.219,-0.879c-0.145,-0.221 -0.343,-0.373 -0.593,-0.457c-0.177,-0.057 -0.69,-0.086 -1.539,-0.086l-1.485,0l0,2.907Z" />
      <path id="T3-minor-text" d="M253.4,103.7l-0,-9.516l-2.789,0l-0,-1.937l7.461,-0l-0,1.937l-2.782,0l0,9.516l-1.89,-0Z" />
      <path id="A2-minor-text" d="M267.606,103.7l-2.063,-0l-0.82,-2.602l-3.75,0l-0.773,2.602l-2.016,-0l3.656,-11.453l2.008,-0l3.758,11.453Zm-3.492,-4.531l-1.289,-4.25l-1.274,4.25l2.563,-0Z" />
      <path id="L2-minor-text" d="M269.461,103.7l-0,-11.359l1.89,-0l0,9.429l4.719,0l0,1.93l-6.609,-0Z" />
    </g>
    <g id="major-text">
      <path id="P1-major-text" d="M7.645,9.209l17.451,0c4.719,0 8.348,0.371 10.886,1.112c2.538,0.741 4.445,1.811 5.721,3.21c1.276,1.399 2.141,3.094 2.593,5.083c0.453,1.989 0.68,5.069 0.68,9.24l-0,5.803c-0,4.254 -0.44,7.354 -1.318,9.302c-0.878,1.948 -2.49,3.444 -4.836,4.487c-2.346,1.042 -5.412,1.564 -9.199,1.564l-4.65,-0l-0,26.835l-17.328,-0l-0,-66.636Zm17.328,11.401l-0,16.958c0.493,0.027 0.919,0.041 1.275,0.041c1.592,-0 2.696,-0.391 3.314,-1.173c0.617,-0.782 0.926,-2.408 0.926,-4.878l-0,-5.474c-0,-2.277 -0.357,-3.759 -1.07,-4.445c-0.714,-0.686 -2.195,-1.029 -4.445,-1.029Z" />
      <path id="O1-major-text" d="M95.198,48.228c-0,6.695 -0.158,11.435 -0.474,14.22c-0.315,2.785 -1.303,5.33 -2.963,7.635c-1.66,2.305 -3.903,4.074 -6.729,5.309c-2.827,1.235 -6.119,1.852 -9.878,1.852c-3.568,0 -6.771,-0.583 -9.611,-1.749c-2.84,-1.166 -5.124,-2.915 -6.853,-5.248c-1.729,-2.332 -2.757,-4.87 -3.087,-7.614c-0.329,-2.744 -0.494,-7.546 -0.494,-14.405l0,-11.401c0,-6.695 0.158,-11.435 0.474,-14.221c0.315,-2.785 1.303,-5.33 2.963,-7.634c1.66,-2.305 3.903,-4.075 6.729,-5.31c2.827,-1.235 6.119,-1.852 9.879,-1.852c3.567,0 6.77,0.583 9.61,1.749c2.84,1.166 5.124,2.916 6.853,5.248c1.729,2.332 2.757,4.87 3.087,7.614c0.329,2.744 0.494,7.546 0.494,14.406l-0,11.401Zm-17.328,-21.897c-0,-3.1 -0.172,-5.083 -0.515,-5.947c-0.343,-0.864 -1.049,-1.297 -2.119,-1.297c-0.906,0 -1.598,0.35 -2.079,1.05c-0.48,0.7 -0.72,2.764 -0.72,6.194l0,31.116c0,3.869 0.158,6.256 0.473,7.162c0.316,0.905 1.05,1.358 2.202,1.358c1.18,-0 1.935,-0.522 2.264,-1.564c0.329,-1.043 0.494,-3.526 0.494,-7.45l-0,-30.622Z" />
      <path id="R1-major-text" d="M107.307,9.209l12.265,0c8.177,0 13.713,0.316 16.608,0.947c2.895,0.631 5.254,2.243 7.079,4.836c1.825,2.593 2.737,6.73 2.737,12.409c0,5.186 -0.645,8.671 -1.934,10.455c-1.29,1.783 -3.828,2.853 -7.615,3.21c3.43,0.851 5.735,1.989 6.915,3.416c1.18,1.427 1.914,2.737 2.202,3.931c0.288,1.193 0.432,4.479 0.432,9.857l0,17.575l-16.093,-0l0,-22.143c0,-3.567 -0.281,-5.776 -0.844,-6.627c-0.562,-0.85 -2.037,-1.276 -4.424,-1.276l-0,30.046l-17.328,-0l0,-66.636Zm17.328,11.401l-0,14.817c1.948,0 3.313,-0.267 4.095,-0.802c0.782,-0.535 1.173,-2.271 1.173,-5.207l0,-3.663c0,-2.113 -0.377,-3.498 -1.132,-4.157c-0.754,-0.658 -2.133,-0.988 -4.136,-0.988Z" />
      <path id="T1-major-text" d="M193.255,9.209l-0,13.336l-10.29,-0l0,53.3l-17.328,-0l0,-53.3l-10.248,-0l0,-13.336l37.866,0Z" />
      <path id="A1-major-text" d="M229.401,9.209l9.919,66.636l-17.739,-0l-0.865,-11.977l-6.215,-0l-1.029,11.977l-17.945,-0l8.808,-66.636l25.066,0Zm-9.179,42.846c-0.878,-7.545 -1.756,-16.861 -2.634,-27.946c-1.756,12.731 -2.853,22.047 -3.292,27.946l5.926,0Z" />
      <path id="L1-major-text" d="M265.259,9.209l-0,53.301l10.536,-0l0,13.335l-27.864,-0l-0,-66.636l17.328,0Z" /></g>
</svg>
